<svg xmlns="http://www.w3.org/2000/svg" viewBox="0 0 512 512" role="img" aria-labelledby="title">
  <title id="title">Magic lightbulb</title>
  <defs>
    <radialGradient id="background" cx="50%" cy="43%" r="68%">
      <stop offset="0" stop-color="#253353"/>
      <stop offset="1" stop-color="#08142e"/>
    </radialGradient>
    <radialGradient id="bulb" cx="42%" cy="35%" r="70%">
      <stop offset="0" stop-color="#fff7b2"/>
      <stop offset="0.42" stop-color="#fde047"/>
      <stop offset="1" stop-color="#f59e0b"/>
    </radialGradient>
    <filter id="glow" x="-60%" y="-60%" width="220%" height="220%">
      <feGaussianBlur stdDeviation="12"/>
    </filter>
  </defs>
  <rect width="512" height="512" fill="url(#background)"/>
  <circle cx="256" cy="234" r="142" fill="#fbbf24" opacity=".2" filter="url(#glow)"/>
  <path d="M256 96c-77 0-139 60-139 134 0 51 25 83 55 112 14 14 19 28 21 43h126c2-15 7-29 21-43 30-29 55-61 55-112 0-74-62-134-139-134Z" fill="url(#bulb)" stroke="#081a42" stroke-width="18" stroke-linejoin="round"/>
  <path d="M208 384h96M211 414h90M222 444h68" fill="none" stroke="#081a42" stroke-width="20" stroke-linecap="round"/>
  <path d="M226 382V278m60 104V278m-60 0c0-21-30-21-30 0s30 20 60 20 60 1 60-20-30-21-30 0" fill="none" stroke="#081a42" stroke-width="15" stroke-linecap="round" stroke-linejoin="round"/>
  <path d="M166 70c4 25 15 36 40 40-25 4-36 15-40 40-4-25-15-36-40-40 25-4 36-15 40-40Zm246 70c3 17 10 24 27 27-17 3-24 10-27 27-3-17-10-24-27-27 17-3 24-10 27-27ZM103 302c3 20 12 29 32 32-20 3-29 12-32 32-3-20-12-29-32-32 20-3 29-12 32-32Z" fill="#fde047" stroke="#081a42" stroke-width="8" stroke-linejoin="round"/>
  <path d="M173 207c8-33 30-58 60-69" fill="none" stroke="#fff9d9" stroke-width="13" stroke-linecap="round" opacity=".85"/>
</svg>
